<svg width="419" height="175" viewBox="0 0 419 175" fill="none" xmlns="http://www.w3.org/2000/svg">
<path d="M109.013 119.554L38.1831 41.1639C37.4182 40.4251 36.3937 40.0164 35.3304 40.0256C34.267 40.0348 33.2498 40.4614 32.4979 41.2133C31.746 41.9652 31.3195 42.9824 31.3102 44.0458C31.301 45.1091 31.7098 46.1336 32.4485 46.8984L109.013 119.554ZM114.742 116.451L61.8716 24.9782C61.2786 24.0946 60.3621 23.4794 59.3198 23.2653C58.2774 23.0513 57.1927 23.2555 56.2995 23.8339C55.4063 24.4123 54.7762 25.3186 54.5452 26.3574C54.3141 27.3961 54.5006 28.484 55.0643 29.3866L114.742 116.451Z" fill="black"/>
<path d="M109.013 119.554L38.1831 41.1639C37.4182 40.4251 36.3937 40.0164 35.3304 40.0256C34.267 40.0348 33.2498 40.4614 32.4979 41.2133C31.746 41.9652 31.3195 42.9824 31.3102 44.0458C31.301 45.1091 31.7098 46.1336 32.4485 46.8984L109.013 119.554ZM114.742 116.451L61.8716 24.9782C61.2786 24.0946 60.3621 23.4794 59.3198 23.2653C58.2774 23.0513 57.1927 23.2555 56.2995 23.8339C55.4063 24.4123 54.7762 25.3186 54.5452 26.3574C54.3141 27.3961 54.5006 28.484 55.0643 29.3866L114.742 116.451Z" stroke="black" stroke-width="2" stroke-miterlimit="10" stroke-linecap="round" stroke-linejoin="round"/>
<circle cx="102" cy="94" r="32" fill="white"/>
<path d="M126.883 64.7227L126.959 64.7983L127.055 64.7508C131.029 62.7895 135.468 61.9648 139.881 62.368C144.294 62.7711 148.51 64.3864 152.062 67.0354C155.615 69.6843 158.366 73.2638 160.012 77.3784C161.658 81.493 162.134 85.9824 161.389 90.3508L161.361 90.5104L161.523 90.5254C162.605 90.6258 163.656 90.9484 164.608 91.4729C165.561 91.9974 166.395 92.7127 167.059 93.5739C167.722 94.4352 168.202 95.424 168.466 96.4787C168.731 97.5334 168.775 98.6313 168.596 99.7039L168.744 99.7285L168.596 99.7039C164.957 121.599 155.962 135.414 141.662 141.224L141.569 141.262V141.363V146.781C141.569 149.949 140.311 152.987 138.071 155.227C135.831 157.467 132.793 158.725 129.625 158.725H97.3752C94.2075 158.725 91.1695 157.467 88.9297 155.227C86.6898 152.987 85.4314 149.949 85.4314 146.781V141.363V141.262L85.3379 141.224C71.0379 135.414 62.0436 121.599 58.4039 99.7039C58.2313 98.6598 58.2699 97.5918 58.5174 96.5629C58.7649 95.534 59.2163 94.5652 59.8449 93.7138C60.4735 92.8624 61.2664 92.1458 62.1769 91.6063C63.0873 91.0668 64.0967 90.7155 65.1454 90.573L65.2752 90.5554V90.4244V90.4163V90.3438C65.2751 83.2063 67.3889 76.2287 71.35 70.2913C75.3111 64.3539 80.942 59.7226 87.5323 56.9819C94.1226 54.2412 101.377 53.5138 108.38 54.8914C115.383 56.269 121.822 59.69 126.883 64.7227ZM73.0377 90.3438V90.4938H73.1877H81.2502H81.4002V90.3438C81.4002 85.0378 83.508 79.9491 87.2599 76.1972C91.0118 72.4453 96.1004 70.3375 101.406 70.3375C106.712 70.3375 111.801 72.4453 115.553 76.1972C119.305 79.9491 121.413 85.0378 121.413 90.3438V90.4938H121.563H129.625H129.775V90.3438C129.775 82.8199 126.786 75.6042 121.466 70.284C116.146 64.9638 108.93 61.975 101.406 61.975C93.8826 61.975 86.6669 64.9638 81.3467 70.284C76.0265 75.6042 73.0377 82.8199 73.0377 90.3438ZM89.1627 90.3438V90.4938H89.3127H113.5H113.65V90.3438C113.65 87.0965 112.36 83.9823 110.064 81.6861C107.768 79.39 104.654 78.1 101.406 78.1C98.1592 78.1 95.0449 79.39 92.7488 81.6861C90.4526 83.9823 89.1627 87.0965 89.1627 90.3438ZM144.54 90.2693L144.411 90.4938H144.67H153.305H153.421L153.45 90.3809C154.064 87.9761 154.122 85.4627 153.618 83.0324C153.113 80.6021 152.061 78.319 150.541 76.357C149.021 74.3949 147.073 72.8058 144.845 71.7107C142.618 70.6155 140.17 70.0433 137.688 70.0375H137.688C135.735 70.0375 133.879 70.3793 132.154 71.0059L131.98 71.0692L132.078 71.2263C133.499 73.5064 134.671 75.9635 135.571 78.5413L135.616 78.6704L135.748 78.6375C137.256 78.2637 138.839 78.3406 140.303 78.8588C141.767 79.377 143.046 80.3136 143.982 81.5524C144.919 82.7911 145.471 84.2776 145.57 85.8272C145.669 87.3768 145.31 88.9214 144.54 90.2693ZM133.806 142.75V142.6H133.656H93.3439H93.1939V142.75V146.781C93.1939 147.89 93.6344 148.954 94.4186 149.738C95.2027 150.522 96.2662 150.963 97.3752 150.963H129.625C130.734 150.963 131.798 150.522 132.582 149.738C133.366 148.954 133.806 147.89 133.806 146.781V142.75ZM90.46 134.83L90.4824 134.838H90.5059H136.494H136.518L136.54 134.83C149.405 130.694 157.52 119 160.943 98.4309L160.972 98.2562H160.795H66.2055H66.0285L66.0576 98.4309C69.4803 119 77.5958 130.694 90.46 134.83Z" fill="#F6CE37" stroke="black" stroke-width="0.3"/>
<path d="M188.548 139H187.022L184.908 135.99C184.712 136.004 184.502 136.018 184.292 136.018H181.87V139H180.47V129.2H184.292C186.84 129.2 188.38 130.488 188.38 132.616C188.38 134.128 187.596 135.22 186.224 135.71L188.548 139ZM184.25 134.828C186.042 134.828 186.98 134.016 186.98 132.616C186.98 131.216 186.042 130.418 184.25 130.418H181.87V134.828H184.25ZM200.442 137.782H206.154V139H199.042V129.2H205.958V130.418H200.442V133.428H205.356V134.618H200.442V137.782ZM221.162 139.112C218.194 139.112 215.982 136.998 215.982 134.1C215.982 131.202 218.194 129.088 221.176 129.088C222.688 129.088 224.004 129.606 224.9 130.614L223.99 131.496C223.234 130.698 222.31 130.334 221.232 130.334C219.02 130.334 217.382 131.93 217.382 134.1C217.382 136.27 219.02 137.866 221.232 137.866C222.31 137.866 223.234 137.488 223.99 136.69L224.9 137.572C224.004 138.58 222.688 139.112 221.162 139.112ZM235.297 139V129.2H236.697V139H235.297ZM251.853 129.2C254.401 129.2 255.941 130.488 255.941 132.616C255.941 134.744 254.401 136.032 251.853 136.032H249.431V139H248.031V129.2H251.853ZM251.811 134.814C253.603 134.814 254.541 134.016 254.541 132.616C254.541 131.216 253.603 130.418 251.811 130.418H249.431V134.814H251.811ZM267.798 137.782H273.51V139H266.398V129.2H273.314V130.418H267.798V133.428H272.712V134.618H267.798V137.782ZM303.252 130.418H297.736V133.834H302.65V135.038H297.736V139H296.336V129.2H303.252V130.418ZM313.623 139V129.2H315.023V139H313.623ZM333.385 129.2H334.785V139H333.637L327.757 131.692V139H326.357V129.2H327.505L333.385 136.508V129.2ZM346.118 139V129.2H350.248C353.398 129.2 355.54 131.188 355.54 134.1C355.54 137.012 353.398 139 350.248 139H346.118ZM347.518 137.782H350.164C352.586 137.782 354.14 136.298 354.14 134.1C354.14 131.902 352.586 130.418 350.164 130.418H347.518V137.782ZM367.485 137.782H373.197V139H366.085V129.2H373.001V130.418H367.485V133.428H372.399V134.618H367.485V137.782ZM391.942 139H390.416L388.302 135.99C388.106 136.004 387.896 136.018 387.686 136.018H385.264V139H383.864V129.2H387.686C390.234 129.2 391.774 130.488 391.774 132.616C391.774 134.128 390.99 135.22 389.618 135.71L391.942 139ZM387.644 134.828C389.436 134.828 390.374 134.016 390.374 132.616C390.374 131.216 389.436 130.418 387.644 130.418H385.264V134.828H387.644Z" fill="#202020"/>
<path d="M188.08 92.08V96.68H197.08V102.64H188.08V107.72H198.28V114H180.24V85.8H198.28V92.08H188.08ZM201.874 102.76C201.874 100.44 202.287 98.4133 203.114 96.68C203.967 94.9467 205.114 93.6133 206.554 92.68C208.021 91.7467 209.647 91.28 211.434 91.28C212.981 91.28 214.314 91.5867 215.434 92.2C216.554 92.8133 217.421 93.64 218.034 94.68V91.56H225.874V114H218.034V110.88C217.421 111.92 216.541 112.747 215.394 113.36C214.274 113.973 212.954 114.28 211.434 114.28C209.647 114.28 208.021 113.813 206.554 112.88C205.114 111.947 203.967 110.613 203.114 108.88C202.287 107.12 201.874 105.08 201.874 102.76ZM218.034 102.76C218.034 101.32 217.634 100.187 216.834 99.36C216.061 98.5333 215.101 98.12 213.954 98.12C212.781 98.12 211.807 98.5333 211.034 99.36C210.261 100.16 209.874 101.293 209.874 102.76C209.874 104.2 210.261 105.347 211.034 106.2C211.807 107.027 212.781 107.44 213.954 107.44C215.101 107.44 216.061 107.027 216.834 106.2C217.634 105.373 218.034 104.227 218.034 102.76ZM244.582 107.32V114H241.182C235.448 114 232.582 111.16 232.582 105.48V98.08H229.822V91.56H232.582V86.12H240.462V91.56H244.542V98.08H240.462V105.6C240.462 106.213 240.595 106.653 240.862 106.92C241.155 107.187 241.635 107.32 242.302 107.32H244.582ZM279.314 114L277.034 111.84C274.5 113.573 271.474 114.44 267.954 114.44C265.74 114.44 263.807 114.08 262.154 113.36C260.527 112.64 259.26 111.627 258.354 110.32C257.474 109.013 257.034 107.507 257.034 105.8C257.034 104.093 257.474 102.547 258.354 101.16C259.26 99.7467 260.607 98.6 262.394 97.72C261.727 96.8667 261.247 96.0533 260.954 95.28C260.66 94.5067 260.514 93.68 260.514 92.8C260.514 91.4133 260.874 90.1467 261.594 89C262.314 87.8533 263.367 86.9467 264.754 86.28C266.167 85.5867 267.834 85.24 269.754 85.24C271.7 85.24 273.354 85.6 274.714 86.32C276.074 87.0133 277.087 87.9467 277.754 89.12C278.447 90.2667 278.78 91.52 278.754 92.88H271.514C271.514 92.2667 271.34 91.8 270.994 91.48C270.647 91.16 270.22 91 269.714 91C269.18 91 268.727 91.16 268.354 91.48C268.007 91.7733 267.834 92.1867 267.834 92.72C267.834 93.6533 268.5 94.7867 269.834 96.12L276.434 102.56C276.674 102.08 276.927 101.507 277.194 100.84L277.994 99.4H285.754L284.594 101.64C283.634 103.933 282.58 105.867 281.434 107.44L288.154 114H279.314ZM268.474 108.16C269.887 108.16 271.14 107.853 272.234 107.24L266.674 101.92C265.98 102.347 265.46 102.84 265.114 103.4C264.767 103.96 264.594 104.533 264.594 105.12C264.594 105.973 264.94 106.693 265.634 107.28C266.327 107.867 267.274 108.16 268.474 108.16ZM310.708 114.28C307.428 114.28 304.735 113.507 302.628 111.96C300.521 110.387 299.388 108.147 299.228 105.24H307.588C307.668 106.227 307.961 106.947 308.468 107.4C308.975 107.853 309.628 108.08 310.428 108.08C311.148 108.08 311.735 107.907 312.188 107.56C312.668 107.187 312.908 106.68 312.908 106.04C312.908 105.213 312.521 104.573 311.748 104.12C310.975 103.667 309.721 103.16 307.988 102.6C306.148 101.987 304.655 101.4 303.508 100.84C302.388 100.253 301.401 99.4133 300.548 98.32C299.721 97.2 299.308 95.7467 299.308 93.96C299.308 92.1467 299.761 90.6 300.668 89.32C301.575 88.0133 302.828 87.0267 304.428 86.36C306.028 85.6933 307.841 85.36 309.868 85.36C313.148 85.36 315.761 86.1333 317.708 87.68C319.681 89.2 320.735 91.3467 320.868 94.12H312.348C312.321 93.2667 312.055 92.6267 311.548 92.2C311.068 91.7733 310.441 91.56 309.668 91.56C309.081 91.56 308.601 91.7333 308.228 92.08C307.855 92.4267 307.668 92.92 307.668 93.56C307.668 94.0933 307.868 94.56 308.268 94.96C308.695 95.3333 309.215 95.6667 309.828 95.96C310.441 96.2267 311.348 96.5733 312.548 97C314.335 97.6133 315.801 98.2267 316.948 98.84C318.121 99.4267 319.121 100.267 319.948 101.36C320.801 102.427 321.228 103.787 321.228 105.44C321.228 107.12 320.801 108.627 319.948 109.96C319.121 111.293 317.908 112.347 316.308 113.12C314.735 113.893 312.868 114.28 310.708 114.28ZM355.193 91.36C358.019 91.36 360.233 92.2133 361.833 93.92C363.459 95.6267 364.273 97.96 364.273 100.92V114H356.433V101.96C356.433 100.76 356.099 99.8267 355.433 99.16C354.766 98.4933 353.859 98.16 352.713 98.16C351.566 98.16 350.659 98.4933 349.993 99.16C349.326 99.8267 348.993 100.76 348.993 101.96V114H341.153V101.96C341.153 100.76 340.819 99.8267 340.153 99.16C339.513 98.4933 338.619 98.16 337.473 98.16C336.299 98.16 335.379 98.4933 334.713 99.16C334.046 99.8267 333.713 100.76 333.713 101.96V114H325.873V91.56H333.713V94.52C334.406 93.56 335.299 92.8 336.393 92.24C337.513 91.6533 338.793 91.36 340.233 91.36C341.886 91.36 343.353 91.72 344.633 92.44C345.939 93.16 346.966 94.1733 347.713 95.48C348.513 94.2533 349.566 93.2667 350.873 92.52C352.179 91.7467 353.619 91.36 355.193 91.36ZM373.528 89.48C372.141 89.48 371.021 89.1067 370.168 88.36C369.341 87.5867 368.928 86.6267 368.928 85.48C368.928 84.3067 369.341 83.3333 370.168 82.56C371.021 81.7867 372.141 81.4 373.528 81.4C374.888 81.4 375.981 81.7867 376.808 82.56C377.661 83.3333 378.088 84.3067 378.088 85.48C378.088 86.6267 377.661 87.5867 376.808 88.36C375.981 89.1067 374.888 89.48 373.528 89.48ZM377.408 91.56V114H369.568V91.56H377.408ZM390.713 84.4V114H382.873V84.4H390.713ZM417.618 102.52C417.618 103.133 417.578 103.747 417.498 104.36H402.658C402.738 105.587 403.071 106.507 403.658 107.12C404.271 107.707 405.044 108 405.978 108C407.284 108 408.218 107.413 408.778 106.24H417.138C416.791 107.787 416.111 109.173 415.098 110.4C414.111 111.6 412.858 112.547 411.338 113.24C409.818 113.933 408.138 114.28 406.298 114.28C404.084 114.28 402.111 113.813 400.378 112.88C398.671 111.947 397.324 110.613 396.338 108.88C395.378 107.147 394.898 105.107 394.898 102.76C394.898 100.413 395.378 98.3867 396.338 96.68C397.298 94.9467 398.631 93.6133 400.338 92.68C402.071 91.7467 404.058 91.28 406.298 91.28C408.511 91.28 410.471 91.7333 412.178 92.64C413.884 93.5467 415.218 94.8533 416.178 96.56C417.138 98.24 417.618 100.227 417.618 102.52ZM409.618 100.56C409.618 99.6 409.298 98.8533 408.658 98.32C408.018 97.76 407.218 97.48 406.258 97.48C405.298 97.48 404.511 97.7467 403.898 98.28C403.284 98.7867 402.884 99.5467 402.698 100.56H409.618Z" fill="#F6CE37"/>
<path d="M188.08 92.08V91.78H187.78V92.08H188.08ZM188.08 96.68H187.78V96.98H188.08V96.68ZM197.08 96.68H197.38V96.38H197.08V96.68ZM197.08 102.64V102.94H197.38V102.64H197.08ZM188.08 102.64V102.34H187.78V102.64H188.08ZM188.08 107.72H187.78V108.02H188.08V107.72ZM198.28 107.72H198.58V107.42H198.28V107.72ZM198.28 114V114.3H198.58V114H198.28ZM180.24 114H179.94V114.3H180.24V114ZM180.24 85.8V85.5H179.94V85.8H180.24ZM198.28 85.8H198.58V85.5H198.28V85.8ZM198.28 92.08V92.38H198.58V92.08H198.28ZM187.78 92.08V96.68H188.38V92.08H187.78ZM188.08 96.98H197.08V96.38H188.08V96.98ZM196.78 96.68V102.64H197.38V96.68H196.78ZM197.08 102.34H188.08V102.94H197.08V102.34ZM187.78 102.64V107.72H188.38V102.64H187.78ZM188.08 108.02H198.28V107.42H188.08V108.02ZM197.98 107.72V114H198.58V107.72H197.98ZM198.28 113.7H180.24V114.3H198.28V113.7ZM180.54 114V85.8H179.94V114H180.54ZM180.24 86.1H198.28V85.5H180.24V86.1ZM197.98 85.8V92.08H198.58V85.8H197.98ZM198.28 91.78H188.08V92.38H198.28V91.78ZM203.114 96.68L202.845 96.5475L202.843 96.5509L203.114 96.68ZM206.554 92.68L206.393 92.4269L206.391 92.4283L206.554 92.68ZM215.434 92.2L215.29 92.4631L215.29 92.4631L215.434 92.2ZM218.034 94.68L217.776 94.8324L218.334 95.7793V94.68H218.034ZM218.034 91.56V91.26H217.734V91.56H218.034ZM225.874 91.56H226.174V91.26H225.874V91.56ZM225.874 114V114.3H226.174V114H225.874ZM218.034 114H217.734V114.3H218.034V114ZM218.034 110.88H218.334V109.781L217.776 110.728L218.034 110.88ZM215.394 113.36L215.253 113.095L215.25 113.097L215.394 113.36ZM206.554 112.88L206.391 113.132L206.393 113.133L206.554 112.88ZM203.114 108.88L202.842 109.008L202.845 109.013L203.114 108.88ZM216.834 99.36L216.615 99.565L216.618 99.5686L216.834 99.36ZM211.034 99.36L211.25 99.5685L211.253 99.5649L211.034 99.36ZM211.034 106.2L210.812 106.401L210.815 106.405L211.034 106.2ZM216.834 106.2L216.618 105.991L216.615 105.995L216.834 106.2ZM202.174 102.76C202.174 100.476 202.581 98.4946 203.385 96.8091L202.843 96.5509C201.994 98.332 201.574 100.404 201.574 102.76H202.174ZM203.383 96.8125C204.216 95.1215 205.328 93.832 206.717 92.9317L206.391 92.4283C204.9 93.3946 203.719 94.7718 202.845 96.5475L203.383 96.8125ZM206.715 92.9331C208.132 92.0313 209.703 91.58 211.434 91.58V90.98C209.592 90.98 207.909 91.4621 206.393 92.4269L206.715 92.9331ZM211.434 91.58C212.941 91.58 214.223 91.8786 215.29 92.4631L215.578 91.9369C214.406 91.2947 213.021 90.98 211.434 90.98V91.58ZM215.29 92.4631C216.365 93.0521 217.191 93.8416 217.776 94.8324L218.292 94.5276C217.65 93.4384 216.743 92.5746 215.578 91.9369L215.29 92.4631ZM218.334 94.68V91.56H217.734V94.68H218.334ZM218.034 91.86H225.874V91.26H218.034V91.86ZM225.574 91.56V114H226.174V91.56H225.574ZM225.874 113.7H218.034V114.3H225.874V113.7ZM218.334 114V110.88H217.734V114H218.334ZM217.776 110.728C217.192 111.717 216.355 112.506 215.253 113.095L215.536 113.625C216.727 112.987 217.649 112.123 218.292 111.032L217.776 110.728ZM215.25 113.097C214.182 113.682 212.913 113.98 211.434 113.98V114.58C212.995 114.58 214.366 114.265 215.538 113.623L215.25 113.097ZM211.434 113.98C209.703 113.98 208.132 113.529 206.715 112.627L206.393 113.133C207.909 114.098 209.592 114.58 211.434 114.58V113.98ZM206.717 112.628C205.328 111.728 204.216 110.439 203.383 108.747L202.845 109.013C203.719 110.788 204.9 112.165 206.391 113.132L206.717 112.628ZM203.386 108.752C202.581 107.039 202.174 105.044 202.174 102.76H201.574C201.574 105.116 201.994 107.201 202.843 109.008L203.386 108.752ZM218.334 102.76C218.334 101.263 217.917 100.047 217.05 99.1514L216.618 99.5686C217.352 100.326 217.734 101.377 217.734 102.76H218.334ZM217.053 99.1551C216.222 98.2669 215.183 97.82 213.954 97.82V98.42C215.019 98.42 215.899 98.7998 216.615 99.5649L217.053 99.1551ZM213.954 97.82C212.701 97.82 211.647 98.2653 210.815 99.1551L211.253 99.5649C211.967 98.8014 212.86 98.42 213.954 98.42V97.82ZM210.818 99.1515C209.975 100.023 209.574 101.241 209.574 102.76H210.174C210.174 101.346 210.546 100.297 211.25 99.5685L210.818 99.1515ZM209.574 102.76C209.574 104.255 209.977 105.48 210.812 106.401L211.256 105.999C210.545 105.213 210.174 104.145 210.174 102.76H209.574ZM210.815 106.405C211.647 107.295 212.701 107.74 213.954 107.74V107.14C212.86 107.14 211.967 106.759 211.253 105.995L210.815 106.405ZM213.954 107.74C215.183 107.74 216.222 107.293 217.053 106.405L216.615 105.995C215.899 106.76 215.019 107.14 213.954 107.14V107.74ZM217.05 106.409C217.918 105.512 218.334 104.282 218.334 102.76H217.734C217.734 104.171 217.351 105.235 216.618 105.991L217.05 106.409ZM244.582 107.32H244.882V107.02H244.582V107.32ZM244.582 114V114.3H244.882V114H244.582ZM232.582 98.08H232.882V97.78H232.582V98.08ZM229.822 98.08H229.522V98.38H229.822V98.08ZM229.822 91.56V91.26H229.522V91.56H229.822ZM232.582 91.56V91.86H232.882V91.56H232.582ZM232.582 86.12V85.82H232.282V86.12H232.582ZM240.462 86.12H240.762V85.82H240.462V86.12ZM240.462 91.56H240.162V91.86H240.462V91.56ZM244.542 91.56H244.842V91.26H244.542V91.56ZM244.542 98.08V98.38H244.842V98.08H244.542ZM240.462 98.08V97.78H240.162V98.08H240.462ZM240.862 106.92L240.649 107.132L240.654 107.137L240.66 107.142L240.862 106.92ZM244.282 107.32V114H244.882V107.32H244.282ZM244.582 113.7H241.182V114.3H244.582V113.7ZM241.182 113.7C238.36 113.7 236.3 113.001 234.943 111.657C233.586 110.313 232.882 108.273 232.882 105.48H232.282C232.282 108.367 233.01 110.587 234.52 112.083C236.03 113.579 238.269 114.3 241.182 114.3V113.7ZM232.882 105.48V98.08H232.282V105.48H232.882ZM232.582 97.78H229.822V98.38H232.582V97.78ZM230.122 98.08V91.56H229.522V98.08H230.122ZM229.822 91.86H232.582V91.26H229.822V91.86ZM232.882 91.56V86.12H232.282V91.56H232.882ZM232.582 86.42H240.462V85.82H232.582V86.42ZM240.162 86.12V91.56H240.762V86.12H240.162ZM240.462 91.86H244.542V91.26H240.462V91.86ZM244.242 91.56V98.08H244.842V91.56H244.242ZM244.542 97.78H240.462V98.38H244.542V97.78ZM240.162 98.08V105.6H240.762V98.08H240.162ZM240.162 105.6C240.162 106.245 240.3 106.783 240.649 107.132L241.074 106.708C240.89 106.524 240.762 106.181 240.762 105.6H240.162ZM240.66 107.142C241.035 107.483 241.608 107.62 242.302 107.62V107.02C241.662 107.02 241.274 106.89 241.063 106.698L240.66 107.142ZM242.302 107.62H244.582V107.02H242.302V107.62ZM279.314 114L279.107 114.218L279.194 114.3H279.314V114ZM277.034 111.84L277.24 111.622L277.064 111.456L276.864 111.592L277.034 111.84ZM262.154 113.36L262.032 113.634L262.034 113.635L262.154 113.36ZM258.354 110.32L258.105 110.488L258.107 110.491L258.354 110.32ZM258.354 101.16L258.101 100.998L258.1 100.999L258.354 101.16ZM262.394 97.72L262.526 97.9891L262.857 97.8261L262.63 97.5353L262.394 97.72ZM260.954 95.28L261.234 95.1736L261.234 95.1736L260.954 95.28ZM261.594 89L261.848 89.1595L261.848 89.1595L261.594 89ZM264.754 86.28L264.884 86.5504L264.886 86.5493L264.754 86.28ZM274.714 86.32L274.573 86.5852L274.577 86.5873L274.714 86.32ZM277.754 89.12L277.493 89.2683L277.497 89.2752L277.754 89.12ZM278.754 92.88V93.18H279.048L279.054 92.8859L278.754 92.88ZM271.514 92.88H271.214V93.18H271.514V92.88ZM268.354 91.48L268.548 91.709L268.549 91.7078L268.354 91.48ZM269.834 96.12L269.622 96.3321L269.624 96.3347L269.834 96.12ZM276.434 102.56L276.224 102.775L276.518 103.062L276.702 102.694L276.434 102.56ZM277.194 100.84L276.932 100.694L276.922 100.711L276.915 100.729L277.194 100.84ZM277.994 99.4V99.1H277.817L277.732 99.2543L277.994 99.4ZM285.754 99.4L286.02 99.538L286.247 99.1H285.754V99.4ZM284.594 101.64L284.327 101.502L284.322 101.513L284.317 101.524L284.594 101.64ZM281.434 107.44L281.191 107.263L281.038 107.473L281.224 107.655L281.434 107.44ZM288.154 114V114.3H288.891L288.363 113.785L288.154 114ZM272.234 107.24L272.381 107.502L272.734 107.303L272.441 107.023L272.234 107.24ZM266.674 101.92L266.881 101.703L266.714 101.543L266.517 101.665L266.674 101.92ZM265.114 103.4L264.859 103.242L264.859 103.242L265.114 103.4ZM265.634 107.28L265.828 107.051L265.828 107.051L265.634 107.28ZM279.52 113.782L277.24 111.622L276.827 112.058L279.107 114.218L279.52 113.782ZM276.864 111.592C274.388 113.287 271.422 114.14 267.954 114.14V114.74C271.525 114.74 274.613 113.86 277.203 112.088L276.864 111.592ZM267.954 114.14C265.773 114.14 263.882 113.785 262.274 113.085L262.034 113.635C263.733 114.375 265.708 114.74 267.954 114.74V114.14ZM262.275 113.086C260.693 112.385 259.472 111.405 258.6 110.149L258.107 110.491C259.049 111.848 260.361 112.895 262.032 113.634L262.275 113.086ZM258.603 110.152C257.759 108.899 257.334 107.452 257.334 105.8H256.734C256.734 107.561 257.189 109.127 258.105 110.488L258.603 110.152ZM257.334 105.8C257.334 104.148 257.759 102.657 258.607 101.321L258.1 100.999C257.189 102.436 256.734 104.039 256.734 105.8H257.334ZM258.606 101.322C259.478 99.9625 260.779 98.8495 262.526 97.9891L262.261 97.4509C260.435 98.3505 259.042 99.5308 258.101 100.998L258.606 101.322ZM262.63 97.5353C261.977 96.6988 261.514 95.9116 261.234 95.1736L260.673 95.3864C260.98 96.1951 261.478 97.0345 262.157 97.9047L262.63 97.5353ZM261.234 95.1736C260.955 94.4364 260.814 93.646 260.814 92.8H260.214C260.214 93.714 260.366 94.5769 260.673 95.3864L261.234 95.1736ZM260.814 92.8C260.814 91.4683 261.159 90.2572 261.848 89.1595L261.34 88.8405C260.589 90.0361 260.214 91.3583 260.214 92.8H260.814ZM261.848 89.1595C262.534 88.0671 263.541 87.196 264.884 86.5504L264.624 86.0096C263.193 86.6974 262.094 87.6396 261.34 88.8405L261.848 89.1595ZM264.886 86.5493C266.25 85.8801 267.87 85.54 269.754 85.54V84.94C267.798 84.94 266.084 85.2932 264.622 86.0107L264.886 86.5493ZM269.754 85.54C271.664 85.54 273.267 85.8933 274.573 86.5851L274.854 86.0549C273.441 85.3067 271.737 84.94 269.754 84.94V85.54ZM274.577 86.5873C275.892 87.2576 276.859 88.1524 277.493 89.2682L278.015 88.9718C277.315 87.7409 276.255 86.7691 274.85 86.0527L274.577 86.5873ZM277.497 89.2752C278.161 90.3726 278.479 91.5699 278.454 92.8741L279.054 92.8859C279.081 91.4701 278.734 90.1607 278.01 88.9648L277.497 89.2752ZM278.754 92.58H271.514V93.18H278.754V92.58ZM271.814 92.88C271.814 92.2095 271.623 91.6521 271.197 91.2596L270.79 91.7004C271.058 91.9479 271.214 92.3239 271.214 92.88H271.814ZM271.197 91.2596C270.791 90.8844 270.29 90.7 269.714 90.7V91.3C270.151 91.3 270.503 91.4356 270.79 91.7004L271.197 91.2596ZM269.714 90.7C269.115 90.7 268.591 90.8815 268.159 91.2522L268.549 91.7078C268.863 91.4385 269.245 91.3 269.714 91.3V90.7ZM268.16 91.251C267.734 91.6115 267.534 92.1155 267.534 92.72H268.134C268.134 92.2579 268.28 91.9352 268.548 91.709L268.16 91.251ZM267.534 92.72C267.534 93.7828 268.282 94.9921 269.622 96.3321L270.046 95.9079C268.719 94.5812 268.134 93.5239 268.134 92.72H267.534ZM269.624 96.3347L276.224 102.775L276.643 102.345L270.043 95.9053L269.624 96.3347ZM276.702 102.694C276.947 102.205 277.203 101.623 277.472 100.951L276.915 100.729C276.651 101.39 276.401 101.955 276.165 102.426L276.702 102.694ZM277.456 100.986L278.256 99.5457L277.732 99.2543L276.932 100.694L277.456 100.986ZM277.994 99.7H285.754V99.1H277.994V99.7ZM285.487 99.262L284.327 101.502L284.86 101.778L286.02 99.538L285.487 99.262ZM284.317 101.524C283.364 103.802 282.321 105.713 281.191 107.263L281.676 107.617C282.84 106.02 283.904 104.065 284.87 101.756L284.317 101.524ZM281.224 107.655L287.944 114.215L288.363 113.785L281.643 107.225L281.224 107.655ZM288.154 113.7H279.314V114.3H288.154V113.7ZM268.474 108.46C269.932 108.46 271.237 108.143 272.381 107.502L272.087 106.978C271.044 107.563 269.842 107.86 268.474 107.86V108.46ZM272.441 107.023L266.881 101.703L266.466 102.137L272.026 107.457L272.441 107.023ZM266.517 101.665C265.793 102.11 265.235 102.634 264.859 103.242L265.369 103.558C265.686 103.046 266.168 102.583 266.831 102.175L266.517 101.665ZM264.859 103.242C264.486 103.844 264.294 104.471 264.294 105.12H264.894C264.894 104.596 265.048 104.076 265.369 103.558L264.859 103.242ZM264.294 105.12C264.294 106.068 264.684 106.87 265.44 107.509L265.828 107.051C265.197 106.517 264.894 105.879 264.894 105.12H264.294ZM265.44 107.509C266.203 108.154 267.226 108.46 268.474 108.46V107.86C267.322 107.86 266.451 107.579 265.828 107.051L265.44 107.509ZM302.628 111.96L302.449 112.2L302.451 112.202L302.628 111.96ZM299.228 105.24V104.94H298.911L298.929 105.256L299.228 105.24ZM307.588 105.24L307.887 105.216L307.865 104.94H307.588V105.24ZM308.468 107.4L308.268 107.624L308.268 107.624L308.468 107.4ZM312.188 107.56L312.37 107.798L312.372 107.797L312.188 107.56ZM311.748 104.12L311.9 103.861L311.9 103.861L311.748 104.12ZM307.988 102.6L307.893 102.885L307.896 102.885L307.988 102.6ZM303.508 100.84L303.369 101.106L303.376 101.11L303.508 100.84ZM300.548 98.32L300.307 98.4982L300.312 98.5046L300.548 98.32ZM300.668 89.32L300.913 89.4934L300.915 89.491L300.668 89.32ZM304.428 86.36L304.313 86.0831L304.313 86.0831L304.428 86.36ZM317.708 87.68L317.521 87.9149L317.525 87.9177L317.708 87.68ZM320.868 94.12V94.42H321.183L321.168 94.1056L320.868 94.12ZM312.348 94.12L312.048 94.1294L312.057 94.42H312.348V94.12ZM311.548 92.2L311.349 92.4243L311.355 92.4295L311.548 92.2ZM308.228 92.08L308.432 92.2998L308.432 92.2998L308.228 92.08ZM308.268 94.96L308.056 95.1721L308.063 95.1792L308.071 95.1858L308.268 94.96ZM309.828 95.96L309.699 96.2308L309.709 96.2351L309.828 95.96ZM312.548 97L312.448 97.2827L312.451 97.2837L312.548 97ZM316.948 98.84L316.807 99.1046L316.814 99.1083L316.948 98.84ZM319.948 101.36L319.709 101.541L319.714 101.547L319.948 101.36ZM319.948 109.96L319.695 109.798L319.693 109.802L319.948 109.96ZM316.308 113.12L316.178 112.85L316.176 112.851L316.308 113.12ZM310.708 113.98C307.476 113.98 304.849 113.218 302.806 111.718L302.451 112.202C304.621 113.795 307.381 114.58 310.708 114.58V113.98ZM302.808 111.72C300.78 110.206 299.683 108.052 299.528 105.224L298.929 105.256C299.093 108.241 300.263 110.568 302.449 112.2L302.808 111.72ZM299.228 105.54H307.588V104.94H299.228V105.54ZM307.289 105.264C307.373 106.293 307.683 107.1 308.268 107.624L308.668 107.176C308.24 106.794 307.964 106.16 307.887 105.216L307.289 105.264ZM308.268 107.624C308.839 108.135 309.568 108.38 310.428 108.38V107.78C309.688 107.78 309.11 107.572 308.668 107.176L308.268 107.624ZM310.428 108.38C311.197 108.38 311.852 108.194 312.37 107.798L312.006 107.322C311.617 107.619 311.1 107.78 310.428 107.78V108.38ZM312.372 107.797C312.93 107.363 313.208 106.767 313.208 106.04H312.608C312.608 106.593 312.407 107.01 312.004 107.323L312.372 107.797ZM313.208 106.04C313.208 105.096 312.756 104.363 311.9 103.861L311.596 104.379C312.287 104.784 312.608 105.33 312.608 106.04H313.208ZM311.9 103.861C311.097 103.391 309.818 102.876 308.08 102.315L307.896 102.885C309.625 103.444 310.853 103.943 311.596 104.379L311.9 103.861ZM308.083 102.315C306.25 101.704 304.77 101.122 303.64 100.57L303.376 101.11C304.539 101.678 306.046 102.269 307.893 102.885L308.083 102.315ZM303.647 100.574C302.569 100.009 301.614 99.1984 300.785 98.1354L300.312 98.5046C301.189 99.6283 302.208 100.497 303.369 101.106L303.647 100.574ZM300.789 98.1418C300.01 97.0864 299.608 95.7008 299.608 93.96H299.008C299.008 95.7925 299.432 97.3136 300.307 98.4982L300.789 98.1418ZM299.608 93.96C299.608 92.1988 300.048 90.7151 300.913 89.4934L300.423 89.1466C299.475 90.4849 299.008 92.0946 299.008 93.96H299.608ZM300.915 89.491C301.786 88.2357 302.991 87.2836 304.544 86.6369L304.313 86.0831C302.665 86.7697 301.364 87.791 300.422 89.149L300.915 89.491ZM304.544 86.6369C306.101 85.9878 307.874 85.66 309.868 85.66V85.06C307.808 85.06 305.955 85.3988 304.313 86.0831L304.544 86.6369ZM309.868 85.66C313.102 85.66 315.643 86.4222 317.522 87.9149L317.895 87.4451C315.88 85.8445 313.194 85.06 309.868 85.06V85.66ZM317.525 87.9177C319.42 89.3774 320.439 91.4377 320.568 94.1344L321.168 94.1056C321.031 91.2557 319.943 89.0226 317.891 87.4423L317.525 87.9177ZM320.868 93.82H312.348V94.42H320.868V93.82ZM312.648 94.1106C312.619 93.1983 312.331 92.467 311.741 91.9705L311.355 92.4295C311.779 92.7864 312.023 93.335 312.048 94.1294L312.648 94.1106ZM311.747 91.9758C311.202 91.4908 310.499 91.26 309.668 91.26V91.86C310.384 91.86 310.934 92.0559 311.349 92.4242L311.747 91.9758ZM309.668 91.26C309.018 91.26 308.461 91.4542 308.024 91.8602L308.432 92.2998C308.742 92.0125 309.145 91.86 309.668 91.86V91.26ZM308.024 91.8602C307.575 92.2774 307.368 92.8594 307.368 93.56H307.968C307.968 92.9806 308.135 92.5759 308.432 92.2998L308.024 91.8602ZM307.368 93.56C307.368 94.1781 307.604 94.7197 308.056 95.1721L308.48 94.7479C308.133 94.4003 307.968 94.0086 307.968 93.56H307.368ZM308.071 95.1858C308.521 95.5802 309.065 95.9278 309.699 96.2306L309.958 95.6894C309.364 95.4055 308.868 95.0864 308.466 94.7342L308.071 95.1858ZM309.709 96.2351C310.331 96.506 311.246 96.8554 312.448 97.2827L312.649 96.7173C311.45 96.2913 310.551 95.9474 309.948 95.6849L309.709 96.2351ZM312.451 97.2837C314.228 97.894 315.679 98.5013 316.807 99.1045L317.09 98.5755C315.924 97.952 314.441 97.3327 312.646 96.7163L312.451 97.2837ZM316.814 99.1083C317.944 99.6734 318.909 100.483 319.709 101.541L320.187 101.179C319.334 100.051 318.299 99.1799 317.082 98.5717L316.814 99.1083ZM319.714 101.547C320.516 102.55 320.928 103.84 320.928 105.44H321.528C321.528 103.733 321.087 102.303 320.182 101.173L319.714 101.547ZM320.928 105.44C320.928 107.066 320.516 108.516 319.695 109.798L320.201 110.122C321.087 108.737 321.528 107.174 321.528 105.44H320.928ZM319.693 109.802C318.9 111.081 317.733 112.098 316.178 112.85L316.439 113.39C318.083 112.595 319.343 111.506 320.203 110.118L319.693 109.802ZM316.176 112.851C314.652 113.6 312.833 113.98 310.708 113.98V114.58C312.904 114.58 314.818 114.187 316.44 113.389L316.176 112.851ZM361.833 93.92L361.614 94.1252L361.616 94.127L361.833 93.92ZM364.273 114V114.3H364.573V114H364.273ZM356.433 114H356.133V114.3H356.433V114ZM355.433 99.16L355.221 99.3721L355.221 99.3721L355.433 99.16ZM349.993 99.16L350.205 99.3721L350.205 99.3721L349.993 99.16ZM348.993 114V114.3H349.293V114H348.993ZM341.153 114H340.853V114.3H341.153V114ZM340.153 99.16L339.936 99.3678L339.941 99.3721L340.153 99.16ZM333.713 114V114.3H334.013V114H333.713ZM325.873 114H325.573V114.3H325.873V114ZM325.873 91.56V91.26H325.573V91.56H325.873ZM333.713 91.56H334.013V91.26H333.713V91.56ZM333.713 94.52H333.413V95.4478L333.956 94.6956L333.713 94.52ZM336.393 92.24L336.53 92.507L336.532 92.5057L336.393 92.24ZM344.633 92.44L344.486 92.7015L344.488 92.7028L344.633 92.44ZM347.713 95.48L347.452 95.6288L347.696 96.0551L347.964 95.6439L347.713 95.48ZM350.873 92.52L351.022 92.7805L351.026 92.7782L350.873 92.52ZM355.193 91.66C357.955 91.66 360.082 92.4914 361.614 94.1252L362.052 93.7148C360.383 91.9353 358.084 91.06 355.193 91.06V91.66ZM361.616 94.127C363.176 95.7645 363.973 98.0165 363.973 100.92H364.573C364.573 97.9035 363.743 95.4888 362.05 93.713L361.616 94.127ZM363.973 100.92V114H364.573V100.92H363.973ZM364.273 113.7H356.433V114.3H364.273V113.7ZM356.733 114V101.96H356.133V114H356.733ZM356.733 101.96C356.733 100.703 356.382 99.6851 355.645 98.9479L355.221 99.3721C355.817 99.9682 356.133 100.817 356.133 101.96H356.733ZM355.645 98.9479C354.91 98.2132 353.921 97.86 352.713 97.86V98.46C353.798 98.46 354.622 98.7735 355.221 99.3721L355.645 98.9479ZM352.713 97.86C351.505 97.86 350.515 98.2132 349.781 98.9479L350.205 99.3721C350.804 98.7735 351.627 98.46 352.713 98.46V97.86ZM349.781 98.9479C349.043 99.6851 348.693 100.703 348.693 101.96H349.293C349.293 100.817 349.609 99.9682 350.205 99.3721L349.781 98.9479ZM348.693 101.96V114H349.293V101.96H348.693ZM348.993 113.7H341.153V114.3H348.993V113.7ZM341.453 114V101.96H340.853V114H341.453ZM341.453 101.96C341.453 100.703 341.102 99.6851 340.365 98.9479L339.941 99.3721C340.537 99.9682 340.853 100.817 340.853 101.96H341.453ZM340.369 98.9522C339.66 98.2131 338.68 97.86 337.473 97.86V98.46C338.559 98.46 339.366 98.7736 339.936 99.3678L340.369 98.9522ZM337.473 97.86C336.24 97.86 335.237 98.2119 334.501 98.9479L334.925 99.3721C335.522 98.7748 336.358 98.46 337.473 98.46V97.86ZM334.501 98.9479C333.763 99.6851 333.413 100.703 333.413 101.96H334.013C334.013 100.817 334.329 99.9682 334.925 99.3721L334.501 98.9479ZM333.413 101.96V114H334.013V101.96H333.413ZM333.713 113.7H325.873V114.3H333.713V113.7ZM326.173 114V91.56H325.573V114H326.173ZM325.873 91.86H333.713V91.26H325.873V91.86ZM333.413 91.56V94.52H334.013V91.56H333.413ZM333.956 94.6956C334.621 93.7755 335.477 93.0462 336.53 92.507L336.256 91.973C335.122 92.5538 334.192 93.3445 333.47 94.3444L333.956 94.6956ZM336.532 92.5057C337.603 91.9445 338.835 91.66 340.233 91.66V91.06C338.751 91.06 337.422 91.3621 336.254 91.9742L336.532 92.5057ZM340.233 91.66C341.841 91.66 343.256 92.0098 344.486 92.7015L344.78 92.1785C343.45 91.4302 341.931 91.06 340.233 91.06V91.66ZM344.488 92.7028C345.746 93.3959 346.733 94.3696 347.452 95.6288L347.973 95.3312C347.2 93.9771 346.133 92.9241 344.778 92.1772L344.488 92.7028ZM347.964 95.6439C348.737 94.4582 349.755 93.5042 351.022 92.7805L350.724 92.2595C349.377 93.0291 348.288 94.0485 347.462 95.3161L347.964 95.6439ZM351.026 92.7782C352.284 92.0332 353.671 91.66 355.193 91.66V91.06C353.568 91.06 352.075 91.4601 350.72 92.2618L351.026 92.7782ZM370.168 88.36L369.963 88.5792L369.971 88.5858L370.168 88.36ZM370.168 82.56L369.967 82.3377L369.963 82.3409L370.168 82.56ZM376.808 82.56L376.603 82.7791L376.607 82.7823L376.808 82.56ZM376.808 88.36L377.009 88.5826L377.01 88.5823L376.808 88.36ZM377.408 91.56H377.708V91.26H377.408V91.56ZM377.408 114V114.3H377.708V114H377.408ZM369.568 114H369.268V114.3H369.568V114ZM369.568 91.56V91.26H369.268V91.56H369.568ZM373.528 89.18C372.197 89.18 371.153 88.823 370.366 88.1342L369.971 88.5858C370.89 89.3904 372.086 89.78 373.528 89.78V89.18ZM370.373 88.1409C369.608 87.4251 369.228 86.5449 369.228 85.48H368.628C368.628 86.7085 369.075 87.7482 369.963 88.5791L370.373 88.1409ZM369.228 85.48C369.228 84.3863 369.609 83.4934 370.373 82.7791L369.963 82.3409C369.073 83.1733 368.628 84.2271 368.628 85.48H369.228ZM370.37 82.7823C371.157 82.0688 372.2 81.7 373.528 81.7V81.1C372.083 81.1 370.886 81.5046 369.967 82.3377L370.37 82.7823ZM373.528 81.7C374.828 81.7 375.843 82.0679 376.603 82.7791L377.013 82.3409C376.12 81.5055 374.948 81.1 373.528 81.1V81.7ZM376.607 82.7823C377.396 83.4975 377.788 84.3895 377.788 85.48H378.388C378.388 84.2238 377.927 83.1691 377.01 82.3377L376.607 82.7823ZM377.788 85.48C377.788 86.5416 377.398 87.421 376.607 88.1377L377.01 88.5823C377.925 87.7524 378.388 86.7118 378.388 85.48H377.788ZM376.607 88.1374C375.847 88.8238 374.831 89.18 373.528 89.18V89.78C374.945 89.78 376.116 89.3895 377.009 88.5826L376.607 88.1374ZM377.108 91.56V114H377.708V91.56H377.108ZM377.408 113.7H369.568V114.3H377.408V113.7ZM369.868 114V91.56H369.268V114H369.868ZM369.568 91.86H377.408V91.26H369.568V91.86ZM390.713 84.4H391.013V84.1H390.713V84.4ZM390.713 114V114.3H391.013V114H390.713ZM382.873 114H382.573V114.3H382.873V114ZM382.873 84.4V84.1H382.573V84.4H382.873ZM390.413 84.4V114H391.013V84.4H390.413ZM390.713 113.7H382.873V114.3H390.713V113.7ZM383.173 114V84.4H382.573V114H383.173ZM382.873 84.7H390.713V84.1H382.873V84.7ZM417.498 104.36V104.66H417.761L417.795 104.399L417.498 104.36ZM402.658 104.36V104.06H402.337L402.358 104.38L402.658 104.36ZM403.658 107.12L403.44 107.328L403.45 107.337L403.658 107.12ZM408.778 106.24V105.94H408.588L408.507 106.111L408.778 106.24ZM417.138 106.24L417.43 106.306L417.512 105.94H417.138V106.24ZM415.098 110.4L414.866 110.209L414.866 110.209L415.098 110.4ZM411.338 113.24L411.462 113.513L411.462 113.513L411.338 113.24ZM400.378 112.88L400.234 113.143L400.235 113.144L400.378 112.88ZM396.338 108.88L396.075 109.025L396.077 109.028L396.338 108.88ZM396.338 96.68L396.599 96.8271L396.6 96.8253L396.338 96.68ZM400.338 92.68L400.195 92.4159L400.194 92.4168L400.338 92.68ZM412.178 92.64L412.318 92.3751L412.318 92.3751L412.178 92.64ZM416.178 96.56L415.916 96.7071L415.917 96.7088L416.178 96.56ZM409.618 100.56V100.86H409.918V100.56H409.618ZM408.658 98.32L408.46 98.5458L408.465 98.5505L408.658 98.32ZM403.898 98.28L404.089 98.5114L404.094 98.5064L403.898 98.28ZM402.698 100.56L402.402 100.506L402.337 100.86H402.698V100.56ZM417.318 102.52C417.318 103.12 417.278 103.721 417.2 104.321L417.795 104.399C417.877 103.773 417.918 103.146 417.918 102.52H417.318ZM417.498 104.06H402.658V104.66H417.498V104.06ZM402.358 104.38C402.441 105.646 402.788 106.644 403.441 107.327L403.874 106.913C403.354 106.369 403.034 105.528 402.957 104.34L402.358 104.38ZM403.45 107.337C404.125 107.982 404.975 108.3 405.978 108.3V107.7C405.113 107.7 404.417 107.431 403.865 106.903L403.45 107.337ZM405.978 108.3C406.677 108.3 407.294 108.143 407.817 107.814C408.34 107.485 408.748 106.998 409.048 106.369L408.507 106.111C408.247 106.656 407.908 107.048 407.498 107.306C407.087 107.564 406.585 107.7 405.978 107.7V108.3ZM408.778 106.54H417.138V105.94H408.778V106.54ZM416.845 106.174C416.508 107.675 415.85 109.019 414.866 110.209L415.329 110.591C416.372 109.328 417.073 107.899 417.43 106.306L416.845 106.174ZM414.866 110.209C413.91 111.372 412.695 112.291 411.213 112.967L411.462 113.513C413.02 112.802 414.311 111.828 415.329 110.591L414.866 110.209ZM411.213 112.967C409.736 113.641 408.099 113.98 406.298 113.98V114.58C408.176 114.58 409.899 114.226 411.462 113.513L411.213 112.967ZM406.298 113.98C404.128 113.98 402.204 113.523 400.52 112.616L400.235 113.144C402.018 114.104 404.041 114.58 406.298 114.58V113.98ZM400.521 112.617C398.865 111.711 397.558 110.418 396.598 108.732L396.077 109.028C397.09 110.809 398.477 112.182 400.234 113.143L400.521 112.617ZM396.6 108.735C395.669 107.053 395.198 105.065 395.198 102.76H394.597C394.597 105.148 395.086 107.24 396.075 109.025L396.6 108.735ZM395.198 102.76C395.198 100.455 395.669 98.4807 396.599 96.8271L396.076 96.5329C395.086 98.2926 394.597 100.372 394.597 102.76H395.198ZM396.6 96.8253C397.533 95.1408 398.826 93.8487 400.481 92.9432L400.194 92.4168C398.436 93.3779 397.062 94.7526 396.075 96.5346L396.6 96.8253ZM400.48 92.9441C402.164 92.0374 404.1 91.58 406.298 91.58V90.98C404.015 90.98 401.978 91.4559 400.195 92.4159L400.48 92.9441ZM406.298 91.58C408.469 91.58 410.379 92.0244 412.037 92.9049L412.318 92.3751C410.562 91.4422 408.553 90.98 406.298 90.98V91.58ZM412.037 92.9049C413.692 93.7843 414.984 95.0497 415.916 96.7071L416.439 96.4129C415.451 94.6569 414.076 93.309 412.318 92.3751L412.037 92.9049ZM415.917 96.7088C416.847 98.3358 417.318 100.269 417.318 102.52H417.918C417.918 100.184 417.428 98.1442 416.438 96.4112L415.917 96.7088ZM409.918 100.56C409.918 99.5261 409.569 98.6889 408.85 98.0895L408.465 98.5505C409.026 99.0178 409.318 99.6739 409.318 100.56H409.918ZM408.855 98.0942C408.153 97.4802 407.28 97.18 406.258 97.18V97.78C407.155 97.78 407.882 98.0398 408.46 98.5458L408.855 98.0942ZM406.258 97.18C405.239 97.18 404.378 97.4645 403.701 98.0536L404.094 98.5064C404.644 98.0289 405.356 97.78 406.258 97.78V97.18ZM403.706 98.0487C403.024 98.6122 402.598 99.4438 402.402 100.506L402.993 100.614C403.17 99.6495 403.544 98.9612 404.089 98.5113L403.706 98.0487ZM402.698 100.86H409.618V100.26H402.698V100.86Z" fill="black"/>
</svg>
